<?xml version="1.0" encoding="UTF-8"?>
<svg version="1.1" xmlns="http://www.w3.org/2000/svg" width="192" height="192">
<path d="M0,0 L28,0 L28,1 L34,1 L34,2 L38,2 L38,3 L42,3 L42,4 L45,4 L45,5 L47,5 L47,6 L50,6 L50,7 L53,7 L53,8 L55,8 L55,9 L57,9 L57,10 L59,10 L59,11 L61,11 L61,12 L62,12 L62,13 L64,13 L64,14 L66,14 L66,15 L67,15 L67,16 L69,16 L69,17 L70,17 L70,18 L71,18 L71,19 L73,19 L73,20 L74,20 L74,21 L75,21 L75,22 L77,22 L77,23 L78,23 L78,24 L79,24 L79,25 L80,25 L80,26 L81,26 L81,27 L82,27 L82,28 L83,28 L83,29 L84,29 L84,30 L85,30 L85,31 L86,31 L86,32 L87,32 L87,34 L88,34 L88,35 L89,35 L89,36 L90,36 L90,37 L91,37 L91,39 L92,39 L92,40 L93,40 L93,41 L94,41 L94,43 L95,43 L95,44 L96,44 L96,46 L97,46 L97,48 L98,48 L98,49 L99,49 L99,51 L100,51 L100,53 L101,53 L101,55 L102,55 L102,57 L103,57 L103,59 L104,59 L104,62 L105,62 L105,65 L106,65 L106,68 L107,68 L107,72 L108,72 L108,76 L109,76 L109,81 L110,81 L110,107 L90,107 L90,85 L89,85 L89,79 L88,79 L88,75 L87,75 L87,72 L86,72 L86,69 L85,69 L85,66 L84,66 L84,64 L83,64 L83,62 L82,62 L82,60 L81,60 L81,58 L80,58 L80,56 L79,56 L79,54 L78,54 L78,53 L77,53 L77,51 L76,51 L76,50 L75,50 L75,49 L74,49 L74,47 L73,47 L73,46 L72,46 L72,45 L71,45 L71,44 L70,44 L70,43 L69,43 L69,42 L68,42 L68,41 L67,41 L67,40 L66,40 L66,39 L65,39 L65,38 L64,38 L64,37 L63,37 L63,36 L62,36 L62,35 L61,35 L61,34 L59,34 L59,33 L58,33 L58,32 L57,32 L57,31 L55,31 L55,30 L54,30 L54,29 L52,29 L52,28 L50,28 L50,27 L49,27 L49,26 L47,26 L47,25 L45,25 L45,24 L42,24 L42,23 L40,23 L40,22 L37,22 L37,21 L34,21 L34,20 L30,20 L30,19 L26,19 L26,18 L19,18 L19,17 L4,17 L4,18 L-3,18 L-3,19 L-8,19 L-8,20 L-12,20 L-12,21 L-15,21 L-15,22 L-17,22 L-17,23 L-20,23 L-20,24 L-22,24 L-22,25 L-24,25 L-24,26 L-26,26 L-26,27 L-28,27 L-28,28 L-30,28 L-30,29 L-31,29 L-31,30 L-33,30 L-33,31 L-34,31 L-34,32 L-36,32 L-36,33 L-37,33 L-37,34 L-38,34 L-38,35 L-39,35 L-39,36 L-41,36 L-41,37 L-42,37 L-42,38 L-43,38 L-43,39 L-44,39 L-44,40 L-45,40 L-45,41 L-46,41 L-46,42 L-47,42 L-47,43 L-48,43 L-48,44 L-49,44 L-49,46 L-50,46 L-50,47 L-51,47 L-51,48 L-52,48 L-52,49 L-53,49 L-53,51 L-54,51 L-54,52 L-55,52 L-55,54 L-56,54 L-56,55 L-57,55 L-57,57 L-58,57 L-58,59 L-59,59 L-59,61 L-60,61 L-60,63 L-61,63 L-61,65 L-62,65 L-62,68 L-63,68 L-63,71 L-64,71 L-64,74 L-65,74 L-65,78 L-66,78 L-66,83 L-67,83 L-67,91 L-68,91 L-68,102 L-67,102 L-67,111 L-66,111 L-66,115 L-65,115 L-65,119 L-64,119 L-64,122 L-63,122 L-63,125 L-62,125 L-62,128 L-61,128 L-61,130 L-60,130 L-60,132 L-59,132 L-59,135 L-58,135 L-58,136 L-57,136 L-57,138 L-56,138 L-56,140 L-55,140 L-55,142 L-54,142 L-54,143 L-53,143 L-53,144 L-52,144 L-52,146 L-51,146 L-51,147 L-50,147 L-50,148 L-49,148 L-49,150 L-48,150 L-48,151 L-47,151 L-47,152 L-46,152 L-46,153 L-45,153 L-45,154 L-44,154 L-44,155 L-43,155 L-43,156 L-42,156 L-42,157 L-41,157 L-41,158 L-40,158 L-40,159 L-39,159 L-39,160 L-38,160 L-38,161 L-37,161 L-37,162 L-35,162 L-35,163 L-34,163 L-34,164 L-33,164 L-33,165 L-31,165 L-31,166 L-30,166 L-30,167 L-28,167 L-28,168 L-27,168 L-27,169 L-25,169 L-25,170 L-23,170 L-23,171 L-21,171 L-21,172 L-19,172 L-19,173 L-17,173 L-17,174 L-14,174 L-14,175 L-12,175 L-12,176 L-9,176 L-9,177 L-5,177 L-5,178 L-1,178 L-1,179 L5,179 L5,180 L28,180 L28,179 L34,179 L34,178 L38,178 L38,177 L42,177 L42,176 L45,176 L45,175 L47,175 L47,174 L50,174 L50,173 L52,173 L52,172 L54,172 L54,171 L56,171 L56,170 L58,170 L58,169 L60,169 L60,168 L61,168 L61,167 L63,167 L63,166 L64,166 L64,165 L66,165 L66,164 L67,164 L67,163 L69,163 L69,162 L70,162 L70,161 L71,161 L71,160 L72,160 L72,159 L73,159 L73,158 L74,158 L74,157 L76,157 L76,155 L78,155 L78,153 L79,153 L79,152 L80,152 L80,151 L81,151 L81,150 L82,150 L82,149 L83,149 L83,148 L84,148 L84,146 L85,146 L85,145 L86,145 L86,143 L87,143 L87,142 L88,142 L88,140 L89,140 L89,139 L90,139 L90,137 L91,137 L91,135 L92,135 L92,133 L93,133 L93,131 L94,131 L94,129 L95,129 L95,126 L96,126 L96,123 L97,123 L97,120 L98,120 L98,116 L99,116 L99,111 L100,111 L100,108 L110,108 L110,111 L109,111 L109,117 L108,117 L108,121 L107,121 L107,124 L106,124 L106,127 L105,127 L105,130 L104,130 L104,133 L103,133 L103,135 L102,135 L102,137 L101,137 L101,139 L100,139 L100,141 L99,141 L99,143 L98,143 L98,144 L97,144 L97,146 L96,146 L96,148 L95,148 L95,149 L94,149 L94,151 L93,151 L93,152 L92,152 L92,154 L91,154 L91,155 L90,155 L90,156 L89,156 L89,157 L88,157 L88,159 L87,159 L87,160 L86,160 L86,161 L85,161 L85,162 L84,162 L84,163 L83,163 L83,164 L82,164 L82,165 L81,165 L81,166 L80,166 L80,167 L79,167 L79,168 L78,168 L78,169 L77,169 L77,170 L75,170 L75,171 L74,171 L74,172 L73,172 L73,173 L72,173 L72,174 L70,174 L70,175 L69,175 L69,176 L67,176 L67,177 L66,177 L66,178 L64,178 L64,179 L63,179 L63,180 L61,180 L61,181 L59,181 L59,182 L57,182 L57,183 L55,183 L55,184 L53,184 L53,185 L51,185 L51,186 L48,186 L48,187 L45,187 L45,188 L42,188 L42,189 L38,189 L38,190 L34,190 L34,191 L29,191 L29,192 L-1,192 L-1,191 L-6,191 L-6,190 L-10,190 L-10,189 L-14,189 L-14,188 L-17,188 L-17,187 L-20,187 L-20,186 L-22,186 L-22,185 L-25,185 L-25,184 L-27,184 L-27,183 L-29,183 L-29,182 L-31,182 L-31,181 L-33,181 L-33,180 L-34,180 L-34,179 L-36,179 L-36,178 L-38,178 L-38,177 L-39,177 L-39,176 L-41,176 L-41,175 L-42,175 L-42,174 L-43,174 L-43,173 L-45,173 L-45,172 L-46,172 L-46,171 L-47,171 L-47,170 L-49,170 L-49,169 L-50,169 L-50,168 L-51,168 L-51,167 L-52,167 L-52,166 L-53,166 L-53,165 L-54,165 L-54,164 L-55,164 L-55,163 L-56,163 L-56,162 L-57,162 L-57,161 L-58,161 L-58,160 L-59,160 L-59,158 L-60,158 L-60,157 L-61,157 L-61,156 L-62,156 L-62,155 L-63,155 L-63,153 L-64,153 L-64,152 L-65,152 L-65,151 L-66,151 L-66,149 L-67,149 L-67,148 L-68,148 L-68,146 L-69,146 L-69,144 L-70,144 L-70,142 L-71,142 L-71,141 L-72,141 L-72,139 L-73,139 L-73,136 L-74,136 L-74,134 L-75,134 L-75,132 L-76,132 L-76,129 L-77,129 L-77,126 L-78,126 L-78,123 L-79,123 L-79,120 L-80,120 L-80,116 L-81,116 L-81,110 L-82,110 L-82,82 L-81,82 L-81,76 L-80,76 L-80,72 L-79,72 L-79,69 L-78,69 L-78,66 L-77,66 L-77,63 L-76,63 L-76,60 L-75,60 L-75,58 L-74,58 L-74,56 L-73,56 L-73,54 L-72,54 L-72,52 L-71,52 L-71,50 L-70,50 L-70,48 L-69,48 L-69,46 L-68,46 L-68,45 L-67,45 L-67,43 L-66,43 L-66,42 L-65,42 L-65,40 L-64,40 L-64,39 L-63,39 L-63,37 L-62,37 L-62,36 L-61,36 L-61,35 L-60,35 L-60,34 L-59,34 L-59,33 L-58,33 L-58,31 L-57,31 L-57,30 L-56,30 L-56,29 L-55,29 L-55,28 L-54,28 L-54,27 L-53,27 L-53,26 L-52,26 L-52,25 L-51,25 L-51,24 L-49,24 L-49,23 L-48,23 L-48,22 L-47,22 L-47,21 L-46,21 L-46,20 L-45,20 L-45,19 L-43,19 L-43,18 L-42,18 L-42,17 L-41,17 L-41,16 L-39,16 L-39,15 L-38,15 L-38,14 L-36,14 L-36,13 L-34,13 L-34,12 L-32,12 L-32,11 L-31,11 L-31,10 L-29,10 L-29,9 L-27,9 L-27,8 L-24,8 L-24,7 L-22,7 L-22,6 L-19,6 L-19,5 L-16,5 L-16,4 L-13,4 L-13,3 L-10,3 L-10,2 L-5,2 L-5,1 L0,1 Z " fill="#EE0971" transform="translate(82,0)"/>
<path d="M0,0 L10,0 L10,3 L9,3 L9,9 L8,9 L8,13 L7,13 L7,16 L6,16 L6,19 L5,19 L5,22 L4,22 L4,25 L3,25 L3,27 L2,27 L2,29 L1,29 L1,31 L0,31 L0,33 L-1,33 L-1,35 L-2,35 L-2,36 L-3,36 L-3,38 L-4,38 L-4,40 L-5,40 L-5,41 L-6,41 L-6,43 L-7,43 L-7,44 L-8,44 L-8,46 L-9,46 L-9,47 L-10,47 L-10,48 L-11,48 L-11,49 L-12,49 L-12,51 L-13,51 L-13,52 L-14,52 L-14,53 L-15,53 L-15,54 L-16,54 L-16,55 L-17,55 L-17,56 L-18,56 L-18,57 L-19,57 L-19,58 L-20,58 L-20,59 L-21,59 L-21,60 L-22,60 L-22,61 L-23,61 L-23,62 L-25,62 L-25,63 L-26,63 L-26,64 L-27,64 L-27,65 L-28,65 L-28,66 L-30,66 L-30,67 L-31,67 L-31,68 L-33,68 L-33,69 L-34,69 L-34,70 L-36,70 L-36,71 L-37,71 L-37,72 L-39,72 L-39,73 L-41,73 L-41,74 L-43,74 L-43,75 L-45,75 L-45,76 L-47,76 L-47,77 L-49,77 L-49,78 L-52,78 L-52,79 L-55,79 L-55,80 L-58,80 L-58,81 L-62,81 L-62,82 L-66,82 L-66,83 L-71,83 L-71,84 L-101,84 L-101,83 L-106,83 L-106,82 L-110,82 L-110,81 L-114,81 L-114,80 L-117,80 L-117,79 L-120,79 L-120,78 L-122,78 L-122,77 L-125,77 L-125,76 L-127,76 L-127,75 L-129,75 L-129,74 L-131,74 L-131,73 L-133,73 L-133,72 L-134,72 L-134,71 L-136,71 L-136,70 L-138,70 L-138,69 L-139,69 L-139,68 L-141,68 L-141,67 L-142,67 L-142,66 L-143,66 L-143,65 L-145,65 L-145,64 L-146,64 L-146,63 L-147,63 L-147,62 L-148,62 L-148,61 L-147,61 L-147,58 L-145,58 L-145,57 L-142,57 L-142,56 L-141,56 L-141,55 L-140,55 L-140,53 L-139,53 L-139,52 L-138,52 L-138,53 L-137,53 L-137,54 L-135,54 L-135,55 L-134,55 L-134,56 L-133,56 L-133,57 L-131,57 L-131,58 L-130,58 L-130,59 L-128,59 L-128,60 L-127,60 L-127,61 L-125,61 L-125,62 L-123,62 L-123,63 L-121,63 L-121,64 L-119,64 L-119,65 L-117,65 L-117,66 L-114,66 L-114,67 L-112,67 L-112,68 L-109,68 L-109,69 L-105,69 L-105,70 L-101,70 L-101,71 L-95,71 L-95,72 L-72,72 L-72,71 L-66,71 L-66,70 L-62,70 L-62,69 L-58,69 L-58,68 L-55,68 L-55,67 L-53,67 L-53,66 L-50,66 L-50,65 L-48,65 L-48,64 L-46,64 L-46,63 L-44,63 L-44,62 L-42,62 L-42,61 L-40,61 L-40,60 L-39,60 L-39,59 L-37,59 L-37,58 L-36,58 L-36,57 L-34,57 L-34,56 L-33,56 L-33,55 L-31,55 L-31,54 L-30,54 L-30,53 L-29,53 L-29,52 L-28,52 L-28,51 L-27,51 L-27,50 L-26,50 L-26,49 L-24,49 L-24,47 L-22,47 L-22,45 L-21,45 L-21,44 L-20,44 L-20,43 L-19,43 L-19,42 L-18,42 L-18,41 L-17,41 L-17,40 L-16,40 L-16,38 L-15,38 L-15,37 L-14,37 L-14,35 L-13,35 L-13,34 L-12,34 L-12,32 L-11,32 L-11,31 L-10,31 L-10,29 L-9,29 L-9,27 L-8,27 L-8,25 L-7,25 L-7,23 L-6,23 L-6,21 L-5,21 L-5,18 L-4,18 L-4,15 L-3,15 L-3,12 L-2,12 L-2,8 L-1,8 L-1,3 L0,3 Z " fill="#00A2CC" transform="translate(182,108)"/>
<path d="M0,0 L1,0 L1,9 L2,9 L2,14 L3,14 L3,16 L4,16 L4,17 L5,17 L5,18 L4,18 L4,19 L3,19 L3,21 L2,21 L2,23 L1,23 L1,25 L0,25 L0,27 L-1,27 L-1,29 L-2,29 L-2,32 L-3,32 L-3,35 L-4,35 L-4,38 L-5,38 L-5,42 L-6,42 L-6,47 L-7,47 L-7,55 L-8,55 L-8,66 L-7,66 L-7,75 L-6,75 L-6,79 L-5,79 L-5,83 L-4,83 L-4,86 L-3,86 L-3,89 L-2,89 L-2,92 L-1,92 L-1,94 L0,94 L0,96 L1,96 L1,99 L2,99 L2,100 L3,100 L3,102 L4,102 L4,104 L5,104 L5,106 L6,106 L6,107 L7,107 L7,108 L8,108 L8,110 L9,110 L9,111 L10,111 L10,112 L11,112 L11,114 L12,114 L12,115 L13,115 L13,116 L14,116 L14,117 L15,117 L15,118 L16,118 L16,119 L17,119 L17,120 L18,120 L18,121 L19,121 L19,122 L20,122 L20,123 L21,123 L21,125 L20,125 L20,127 L19,127 L19,128 L18,128 L18,129 L15,129 L15,130 L13,130 L13,133 L12,133 L12,134 L11,134 L11,133 L10,133 L10,132 L9,132 L9,131 L8,131 L8,130 L7,130 L7,129 L6,129 L6,128 L5,128 L5,127 L4,127 L4,126 L3,126 L3,125 L2,125 L2,124 L1,124 L1,122 L0,122 L0,121 L-1,121 L-1,120 L-2,120 L-2,119 L-3,119 L-3,117 L-4,117 L-4,116 L-5,116 L-5,115 L-6,115 L-6,113 L-7,113 L-7,112 L-8,112 L-8,110 L-9,110 L-9,108 L-10,108 L-10,106 L-11,106 L-11,105 L-12,105 L-12,103 L-13,103 L-13,100 L-14,100 L-14,98 L-15,98 L-15,96 L-16,96 L-16,93 L-17,93 L-17,90 L-18,90 L-18,87 L-19,87 L-19,84 L-20,84 L-20,80 L-21,80 L-21,74 L-22,74 L-22,46 L-21,46 L-21,40 L-20,40 L-20,36 L-19,36 L-19,33 L-18,33 L-18,30 L-17,30 L-17,27 L-16,27 L-16,24 L-15,24 L-15,22 L-14,22 L-14,20 L-13,20 L-13,18 L-12,18 L-12,16 L-11,16 L-11,14 L-10,14 L-10,12 L-9,12 L-9,10 L-8,10 L-8,9 L-7,9 L-7,7 L-6,7 L-6,6 L-5,6 L-5,4 L-4,4 L-4,3 L-3,3 L-3,1 L-1,1 L-1,2 L0,2 Z " fill="#FEE206" transform="translate(22,36)"/>
<path d="M0,0 L1,0 L1,2 L2,2 L2,3 L3,3 L3,4 L4,4 L4,5 L5,5 L5,7 L6,7 L6,8 L7,8 L7,9 L8,9 L8,11 L9,11 L9,12 L10,12 L10,14 L11,14 L11,16 L12,16 L12,17 L13,17 L13,19 L14,19 L14,21 L15,21 L15,23 L16,23 L16,25 L17,25 L17,27 L18,27 L18,30 L19,30 L19,33 L20,33 L20,36 L21,36 L21,40 L22,40 L22,44 L23,44 L23,49 L24,49 L24,75 L4,75 L4,53 L3,53 L3,47 L2,47 L2,43 L1,43 L1,40 L0,40 L0,37 L-1,37 L-1,34 L-2,34 L-2,32 L-3,32 L-3,30 L-4,30 L-4,28 L-5,28 L-5,26 L-6,26 L-6,24 L-7,24 L-7,22 L-8,22 L-8,21 L-9,21 L-9,19 L-10,19 L-10,18 L-11,18 L-11,17 L-12,17 L-12,15 L-13,15 L-13,14 L-14,14 L-14,12 L-11,12 L-11,11 L-10,11 L-10,10 L-8,10 L-8,8 L-7,8 L-7,6 L-6,6 L-6,5 L-5,5 L-5,4 L-4,4 L-4,3 L-3,3 L-3,2 L-1,2 L-1,1 L0,1 Z " fill="#8F41BB" transform="translate(168,32)"/>
<path d="M0,0 L15,0 L15,1 L14,1 L14,2 L13,2 L13,4 L12,4 L12,6 L13,6 L13,7 L12,7 L12,13 L11,13 L11,14 L13,14 L13,11 L14,11 L14,14 L16,14 L16,13 L17,13 L17,12 L18,12 L18,11 L20,11 L20,12 L19,12 L19,15 L18,15 L18,16 L19,16 L19,17 L4,17 L4,18 L-3,18 L-3,19 L-8,19 L-8,20 L-12,20 L-12,21 L-15,21 L-15,22 L-17,22 L-17,23 L-20,23 L-20,24 L-22,24 L-22,25 L-24,25 L-24,26 L-26,26 L-26,27 L-28,27 L-28,28 L-30,28 L-30,29 L-31,29 L-31,30 L-33,30 L-33,31 L-34,31 L-34,32 L-36,32 L-36,33 L-37,33 L-37,34 L-38,34 L-38,35 L-39,35 L-39,36 L-41,36 L-41,37 L-42,37 L-42,38 L-43,38 L-43,39 L-44,39 L-44,40 L-45,40 L-45,41 L-46,41 L-46,42 L-47,42 L-47,43 L-48,43 L-48,44 L-49,44 L-49,46 L-50,46 L-50,47 L-51,47 L-51,48 L-52,48 L-52,49 L-53,49 L-53,51 L-54,51 L-54,52 L-55,52 L-55,53 L-56,53 L-56,52 L-57,52 L-57,50 L-58,50 L-58,45 L-59,45 L-59,36 L-60,36 L-60,38 L-61,38 L-61,37 L-62,37 L-62,36 L-61,36 L-61,35 L-60,35 L-60,34 L-59,34 L-59,33 L-58,33 L-58,31 L-57,31 L-57,30 L-56,30 L-56,29 L-55,29 L-55,28 L-54,28 L-54,27 L-53,27 L-53,26 L-52,26 L-52,25 L-51,25 L-51,24 L-49,24 L-49,23 L-48,23 L-48,22 L-47,22 L-47,21 L-46,21 L-46,20 L-45,20 L-45,19 L-43,19 L-43,18 L-42,18 L-42,17 L-41,17 L-41,16 L-39,16 L-39,15 L-38,15 L-38,14 L-36,14 L-36,13 L-34,13 L-34,12 L-32,12 L-32,11 L-31,11 L-31,10 L-29,10 L-29,9 L-27,9 L-27,8 L-24,8 L-24,7 L-22,7 L-22,6 L-19,6 L-19,5 L-16,5 L-16,4 L-13,4 L-13,3 L-10,3 L-10,2 L-5,2 L-5,1 L0,1 Z M10,14 L10,15 L11,15 L11,14 Z M19,15 L20,15 L20,16 L19,16 Z " fill="#FC4057" transform="translate(82,0)"/>
<path d="M0,0 L1,0 L1,3 L2,3 L2,7 L3,7 L3,11 L4,11 L4,16 L5,16 L5,42 L-15,42 L-15,20 L-16,20 L-16,13 L-15,13 L-15,12 L-16,12 L-16,11 L-15,11 L-15,10 L-14,10 L-14,9 L-13,9 L-13,8 L-11,8 L-11,7 L-10,7 L-10,6 L-9,6 L-9,5 L-8,5 L-8,4 L-7,4 L-7,5 L-6,5 L-6,4 L-4,4 L-4,3 L-3,3 L-3,2 L-1,2 L-1,1 L0,1 Z " fill="#8050C3" transform="translate(187,65)"/>
<path d="M0,0 L1,0 L1,1 L2,1 L2,2 L4,2 L4,3 L5,3 L5,4 L6,4 L6,5 L8,5 L8,6 L9,6 L9,7 L11,7 L11,8 L12,8 L12,9 L14,9 L14,10 L16,10 L16,11 L18,11 L18,12 L20,12 L20,13 L22,13 L22,14 L25,14 L25,15 L27,15 L27,16 L30,16 L30,17 L34,17 L34,18 L38,18 L38,19 L44,19 L44,20 L49,20 L49,21 L48,21 L48,22 L47,22 L47,24 L46,24 L46,25 L45,25 L45,28 L44,28 L44,29 L43,29 L43,30 L42,30 L42,32 L38,32 L38,31 L33,31 L33,30 L29,30 L29,29 L25,29 L25,28 L22,28 L22,27 L19,27 L19,26 L17,26 L17,25 L14,25 L14,24 L12,24 L12,23 L10,23 L10,22 L8,22 L8,21 L6,21 L6,20 L5,20 L5,19 L3,19 L3,18 L1,18 L1,17 L0,17 L0,16 L-2,16 L-2,15 L-3,15 L-3,14 L-4,14 L-4,13 L-6,13 L-6,12 L-7,12 L-7,11 L-8,11 L-8,10 L-9,10 L-9,9 L-8,9 L-8,6 L-6,6 L-6,5 L-3,5 L-3,4 L-2,4 L-2,3 L-1,3 L-1,1 L0,1 Z " fill="#00B09A" transform="translate(43,160)"/>
<path d="M0,0 L1,0 L1,2 L2,2 L2,5 L3,5 L3,8 L4,8 L4,10 L5,10 L5,12 L6,12 L6,15 L7,15 L7,16 L8,16 L8,18 L9,18 L9,20 L10,20 L10,22 L11,22 L11,23 L12,23 L12,24 L13,24 L13,26 L14,26 L14,27 L15,27 L15,28 L16,28 L16,30 L17,30 L17,31 L18,31 L18,32 L19,32 L19,33 L20,33 L20,34 L21,34 L21,35 L22,35 L22,36 L23,36 L23,37 L24,37 L24,38 L25,38 L25,39 L26,39 L26,41 L25,41 L25,43 L24,43 L24,44 L23,44 L23,45 L20,45 L20,46 L18,46 L18,49 L17,49 L17,50 L16,50 L16,49 L15,49 L15,48 L14,48 L14,47 L13,47 L13,46 L12,46 L12,45 L11,45 L11,44 L10,44 L10,43 L9,43 L9,42 L8,42 L8,41 L7,41 L7,40 L6,40 L6,38 L5,38 L5,37 L4,37 L4,36 L3,36 L3,35 L2,35 L2,33 L1,33 L1,32 L0,32 L0,31 L-1,31 L-1,29 L-2,29 L-2,28 L-3,28 L-3,26 L-4,26 L-4,24 L-5,24 L-5,22 L-6,22 L-6,21 L-7,21 L-7,19 L-8,19 L-8,16 L-9,16 L-9,14 L-10,14 L-10,12 L-11,12 L-11,9 L-12,9 L-12,6 L-13,6 L-13,5 L-10,5 L-10,4 L-7,4 L-7,3 L-6,3 L-6,2 L-5,2 L-5,3 L-4,3 L-4,2 L-3,2 L-3,3 L-2,3 L-2,2 L-1,2 L-1,1 L0,1 Z " fill="#F0EB04" transform="translate(17,120)"/>
<path d="M0,0 L1,0 L1,1 L0,1 Z M-2,1 L0,1 L0,7 L1,7 L1,13 L2,13 L2,14 L3,14 L3,18 L1,18 L1,19 L-1,19 L-1,20 L-3,20 L-3,21 L-4,21 L-4,22 L-6,22 L-6,23 L-7,23 L-7,24 L-9,24 L-9,25 L-10,25 L-10,26 L-11,26 L-11,27 L-12,27 L-12,28 L-14,28 L-14,29 L-15,29 L-15,30 L-16,30 L-16,31 L-17,31 L-17,32 L-18,32 L-18,33 L-19,33 L-19,34 L-20,34 L-20,35 L-21,35 L-21,36 L-22,36 L-22,38 L-23,38 L-23,39 L-24,39 L-24,40 L-25,40 L-25,41 L-26,41 L-26,43 L-27,43 L-27,44 L-28,44 L-28,45 L-29,45 L-29,44 L-30,44 L-30,42 L-31,42 L-31,37 L-32,37 L-32,28 L-33,28 L-33,30 L-34,30 L-34,29 L-35,29 L-35,28 L-34,28 L-34,27 L-33,27 L-33,26 L-32,26 L-32,25 L-31,25 L-31,23 L-30,23 L-30,22 L-29,22 L-29,21 L-28,21 L-28,20 L-27,20 L-27,19 L-26,19 L-26,18 L-25,18 L-25,17 L-24,17 L-24,16 L-22,16 L-22,15 L-21,15 L-21,14 L-20,14 L-20,13 L-19,13 L-19,12 L-18,12 L-18,11 L-16,11 L-16,10 L-15,10 L-15,9 L-14,9 L-14,8 L-12,8 L-12,7 L-11,7 L-11,6 L-9,6 L-9,5 L-7,5 L-7,4 L-5,4 L-5,3 L-4,3 L-4,2 L-2,2 Z " fill="#FF8C39" transform="translate(55,8)"/>
<path d="M0,0 L4,0 L4,1 L7,1 L7,2 L8,2 L8,3 L9,3 L9,4 L10,4 L10,5 L11,5 L11,6 L12,6 L12,8 L13,8 L13,6 L14,6 L14,5 L15,5 L15,3 L17,3 L17,2 L18,2 L18,1 L22,1 L22,0 L26,0 L26,1 L29,1 L29,2 L30,2 L30,3 L32,3 L32,4 L33,4 L33,6 L34,6 L34,8 L35,8 L35,17 L34,17 L34,19 L33,19 L33,20 L32,20 L32,21 L31,21 L31,22 L30,22 L30,23 L28,23 L28,24 L19,24 L19,23 L17,23 L17,22 L16,22 L16,21 L15,21 L15,20 L14,20 L14,19 L13,19 L13,17 L12,17 L12,18 L11,18 L11,20 L10,20 L10,21 L9,21 L9,22 L8,22 L8,23 L6,23 L6,24 L-4,24 L-4,23 L-6,23 L-6,22 L-7,22 L-7,21 L-8,21 L-8,19 L-9,19 L-9,17 L-10,17 L-10,8 L-9,8 L-9,6 L-8,6 L-8,5 L-7,5 L-7,4 L-6,4 L-6,3 L-5,3 L-5,2 L-3,2 L-3,1 L0,1 Z M-1,7 L-1,8 L-2,8 L-2,9 L-3,9 L-3,15 L-2,15 L-2,17 L-1,17 L-1,18 L4,18 L4,17 L5,17 L5,16 L12,16 L12,9 L8,9 L8,10 L6,10 L6,9 L5,9 L5,8 L4,8 L4,7 Z M23,6 L23,7 L20,7 L20,9 L19,9 L19,16 L20,16 L20,17 L21,17 L21,18 L26,18 L26,17 L27,17 L27,16 L28,16 L28,14 L29,14 L29,11 L28,11 L28,8 L27,8 L27,7 L24,7 L24,6 Z " fill="#FFFFFF" transform="translate(27,83)"/>
<path d="M0,0 L2,0 L2,1 L3,1 L3,2 L4,2 L4,3 L6,3 L6,4 L7,4 L7,5 L8,5 L8,6 L10,6 L10,7 L11,7 L11,8 L12,8 L12,9 L13,9 L13,10 L14,10 L14,11 L15,11 L15,12 L16,12 L16,13 L17,13 L17,14 L18,14 L18,15 L19,15 L19,17 L18,17 L18,18 L16,18 L16,19 L15,19 L15,20 L14,20 L14,21 L13,21 L13,22 L12,22 L12,24 L11,24 L11,26 L9,26 L9,27 L8,27 L8,28 L5,28 L5,29 L4,29 L4,28 L3,28 L3,27 L2,27 L2,26 L1,26 L1,25 L0,25 L0,24 L-1,24 L-1,23 L-2,23 L-2,22 L-3,22 L-3,21 L-4,21 L-4,20 L-5,20 L-5,19 L-6,19 L-6,18 L-8,18 L-8,17 L-9,17 L-9,16 L-10,16 L-10,14 L-9,14 L-9,13 L-8,13 L-8,12 L-7,12 L-7,11 L-5,11 L-5,9 L-4,9 L-4,6 L-3,6 L-3,4 L-2,4 L-2,2 L-1,2 L-1,1 L0,1 Z " fill="#CC0C93" transform="translate(149,16)"/>
<path d="M0,0 L1,0 L1,9 L2,9 L2,14 L3,14 L3,16 L4,16 L4,17 L5,17 L5,18 L4,18 L4,19 L3,19 L3,21 L2,21 L2,23 L1,23 L1,25 L0,25 L0,27 L-1,27 L-1,29 L-2,29 L-2,32 L-3,32 L-3,35 L-4,35 L-4,38 L-5,38 L-5,42 L-6,42 L-6,40 L-7,40 L-7,39 L-8,39 L-8,37 L-9,37 L-9,35 L-10,35 L-10,31 L-12,31 L-12,30 L-13,30 L-13,22 L-14,22 L-14,20 L-13,20 L-13,18 L-12,18 L-12,16 L-11,16 L-11,14 L-10,14 L-10,12 L-9,12 L-9,10 L-8,10 L-8,9 L-7,9 L-7,7 L-6,7 L-6,6 L-5,6 L-5,4 L-4,4 L-4,3 L-3,3 L-3,1 L-1,1 L-1,2 L0,2 Z " fill="#FFAB27" transform="translate(22,36)"/>
<path d="M0,0 L4,0 L4,1 L7,1 L7,2 L9,2 L9,3 L10,3 L10,4 L11,4 L11,6 L12,6 L12,9 L13,9 L13,14 L12,14 L12,15 L-2,15 L-2,16 L-1,16 L-1,18 L2,18 L2,19 L3,19 L3,18 L5,18 L5,17 L6,17 L6,16 L12,16 L12,20 L11,20 L11,21 L10,21 L10,22 L9,22 L9,23 L7,23 L7,24 L-2,24 L-2,23 L-4,23 L-4,22 L-5,22 L-5,21 L-6,21 L-6,20 L-7,20 L-7,19 L-8,19 L-8,17 L-9,17 L-9,9 L-8,9 L-8,6 L-7,6 L-7,5 L-6,5 L-6,4 L-5,4 L-5,3 L-4,3 L-4,2 L-3,2 L-3,1 L0,1 Z M0,6 L0,7 L-1,7 L-1,8 L-2,8 L-2,9 L6,9 L6,7 L4,7 L4,6 Z " fill="#FFFFFF" transform="translate(90,83)"/>
<path d="M0,0 L4,0 L4,1 L7,1 L7,2 L9,2 L9,3 L10,3 L10,4 L11,4 L11,5 L12,5 L12,7 L13,7 L13,10 L14,10 L14,15 L13,15 L13,18 L12,18 L12,19 L11,19 L11,21 L10,21 L10,22 L8,22 L8,23 L7,23 L7,24 L-3,24 L-3,23 L-5,23 L-5,22 L-6,22 L-6,21 L-7,21 L-7,20 L-8,20 L-8,18 L-9,18 L-9,16 L-10,16 L-10,9 L-9,9 L-9,6 L-8,6 L-8,5 L-7,5 L-7,4 L-6,4 L-6,3 L-5,3 L-5,2 L-3,2 L-3,1 L0,1 Z M1,6 L1,7 L-1,7 L-1,8 L-2,8 L-2,9 L-3,9 L-3,16 L-2,16 L-2,17 L-1,17 L-1,18 L5,18 L5,17 L6,17 L6,15 L7,15 L7,10 L6,10 L6,8 L5,8 L5,7 L2,7 L2,6 Z " fill="#FFFFFF" transform="translate(156,83)"/>
<path d="M0,0 L2,0 L2,2 L3,2 L3,3 L4,3 L4,4 L5,4 L5,6 L6,6 L6,7 L7,7 L7,8 L8,8 L8,9 L9,9 L9,10 L10,10 L10,11 L11,11 L11,12 L12,12 L12,13 L13,13 L13,14 L14,14 L14,15 L15,15 L15,17 L14,17 L14,19 L13,19 L13,20 L12,20 L12,21 L9,21 L9,22 L7,22 L7,25 L6,25 L6,26 L5,26 L5,25 L4,25 L4,24 L3,24 L3,23 L2,23 L2,22 L1,22 L1,21 L0,21 L0,20 L-1,20 L-1,19 L-2,19 L-2,18 L-3,18 L-3,17 L-4,17 L-4,16 L-5,16 L-5,14 L-6,14 L-6,13 L-7,13 L-7,12 L-8,12 L-8,11 L-9,11 L-9,9 L-10,9 L-10,8 L-11,8 L-11,7 L-12,7 L-12,4 L-10,4 L-10,3 L-6,3 L-6,2 L-2,2 L-2,1 L0,1 Z " fill="#82DA2C" transform="translate(28,144)"/>
<path d="M0,0 L4,0 L4,1 L7,1 L7,2 L8,2 L8,3 L9,3 L9,4 L10,4 L10,5 L11,5 L11,8 L7,8 L7,9 L5,9 L5,7 L4,7 L4,6 L0,6 L0,7 L-1,7 L-1,8 L0,8 L0,9 L4,9 L4,10 L7,10 L7,11 L9,11 L9,12 L10,12 L10,14 L11,14 L11,20 L10,20 L10,21 L9,21 L9,22 L8,22 L8,23 L7,23 L7,24 L-3,24 L-3,23 L-5,23 L-5,22 L-6,22 L-6,21 L-7,21 L-7,19 L-8,19 L-8,16 L-2,16 L-2,17 L-1,17 L-1,18 L0,18 L0,19 L4,19 L4,16 L1,16 L1,15 L-3,15 L-3,14 L-5,14 L-5,13 L-6,13 L-6,12 L-7,12 L-7,5 L-6,5 L-6,3 L-5,3 L-5,2 L-3,2 L-3,1 L0,1 Z " fill="#FFFFFF" transform="translate(111,83)"/>
<path d="M0,0 L1,0 L1,2 L2,2 L2,3 L3,3 L3,4 L4,4 L4,5 L5,5 L5,7 L6,7 L6,8 L7,8 L7,9 L8,9 L8,11 L9,11 L9,12 L10,12 L10,15 L8,15 L8,16 L7,16 L7,17 L6,17 L6,18 L5,18 L5,19 L4,19 L4,20 L2,20 L2,21 L1,21 L1,22 L0,22 L0,23 L-2,23 L-2,24 L-3,24 L-3,25 L-5,25 L-5,26 L-6,26 L-6,24 L-7,24 L-7,22 L-8,22 L-8,21 L-9,21 L-9,19 L-10,19 L-10,18 L-11,18 L-11,17 L-12,17 L-12,15 L-13,15 L-13,14 L-14,14 L-14,12 L-11,12 L-11,11 L-10,11 L-10,10 L-8,10 L-8,8 L-7,8 L-7,6 L-6,6 L-6,5 L-5,5 L-5,4 L-4,4 L-4,3 L-3,3 L-3,2 L-1,2 L-1,1 L0,1 Z " fill="#B91BA1" transform="translate(168,32)"/>
<path d="M0,0 L1,0 L1,1 L0,1 Z M-2,1 L0,1 L0,7 L1,7 L1,13 L2,13 L2,14 L3,14 L3,18 L1,18 L1,19 L-1,19 L-1,20 L-3,20 L-3,21 L-4,21 L-4,22 L-6,22 L-6,23 L-7,23 L-7,24 L-9,24 L-9,25 L-10,25 L-10,26 L-11,26 L-11,27 L-12,27 L-12,28 L-14,28 L-14,29 L-16,29 L-16,28 L-15,28 L-15,25 L-14,25 L-14,23 L-15,23 L-15,20 L-16,20 L-16,10 L-15,10 L-15,9 L-14,9 L-14,8 L-12,8 L-12,7 L-11,7 L-11,6 L-9,6 L-9,5 L-7,5 L-7,4 L-5,4 L-5,3 L-4,3 L-4,2 L-2,2 Z " fill="#FF7A42" transform="translate(55,8)"/>
<path d="M0,0 L8,0 L8,3 L9,3 L9,7 L10,7 L10,10 L11,10 L11,14 L12,14 L12,12 L13,12 L13,9 L14,9 L14,5 L15,5 L15,2 L16,2 L16,0 L23,0 L23,2 L22,2 L22,4 L21,4 L21,7 L20,7 L20,11 L19,11 L19,14 L18,14 L18,17 L17,17 L17,20 L16,20 L16,22 L15,22 L15,23 L9,23 L9,22 L8,22 L8,21 L7,21 L7,19 L6,19 L6,16 L5,16 L5,13 L4,13 L4,10 L3,10 L3,7 L2,7 L2,4 L1,4 L1,2 L0,2 Z " fill="#FFFFFF" transform="translate(60,84)"/>
<path d="M0,0 L10,0 L10,3 L9,3 L9,9 L8,9 L8,13 L7,13 L7,16 L6,16 L6,19 L5,19 L5,22 L4,22 L4,25 L3,25 L3,27 L2,27 L2,29 L0,29 L0,28 L-1,28 L-1,27 L-3,27 L-3,26 L-6,26 L-6,25 L-7,25 L-7,23 L-6,23 L-6,21 L-5,21 L-5,18 L-4,18 L-4,15 L-3,15 L-3,12 L-2,12 L-2,8 L-1,8 L-1,3 L0,3 Z " fill="#77CBFC" transform="translate(182,108)"/>
<path d="M0,0 L1,0 L1,1 L2,1 L2,2 L4,2 L4,3 L5,3 L5,4 L6,4 L6,5 L8,5 L8,6 L9,6 L9,7 L11,7 L11,8 L12,8 L12,9 L14,9 L14,11 L13,11 L13,15 L12,15 L12,16 L11,16 L11,17 L10,17 L10,18 L9,18 L9,19 L8,19 L8,20 L7,20 L7,21 L6,21 L6,20 L5,20 L5,19 L3,19 L3,18 L1,18 L1,17 L0,17 L0,16 L-2,16 L-2,15 L-3,15 L-3,14 L-4,14 L-4,13 L-6,13 L-6,12 L-7,12 L-7,11 L-8,11 L-8,10 L-9,10 L-9,9 L-8,9 L-8,6 L-6,6 L-6,5 L-3,5 L-3,4 L-2,4 L-2,3 L-1,3 L-1,1 L0,1 Z " fill="#13C364" transform="translate(43,160)"/>
<path d="M0,0 L2,0 L2,6 L6,6 L6,5 L7,5 L7,8 L6,8 L6,10 L5,10 L5,12 L2,12 L2,22 L3,22 L3,23 L6,23 L6,29 L-1,29 L-1,28 L-3,28 L-3,27 L-4,27 L-4,25 L-5,25 L-5,4 L-4,4 L-4,2 L-3,2 L-3,1 L0,1 Z " fill="#FFFFFF" transform="translate(128,78)"/>
<path d="M0,0 L15,0 L15,1 L14,1 L14,2 L13,2 L13,4 L12,4 L12,6 L13,6 L13,7 L12,7 L12,13 L11,13 L11,14 L13,14 L13,11 L14,11 L14,14 L16,14 L16,13 L17,13 L17,12 L18,12 L18,11 L20,11 L20,12 L19,12 L19,15 L18,15 L18,16 L19,16 L19,17 L4,17 L4,18 L1,18 L1,16 L0,16 L0,14 L1,14 L1,12 L2,12 L2,11 L1,11 L1,1 L0,1 Z M10,14 L10,15 L11,15 L11,14 Z M19,15 L20,15 L20,16 L19,16 Z " fill="#FB315B" transform="translate(82,0)"/>
<path d="M0,0 L2,0 L2,1 L5,1 L5,2 L7,2 L7,3 L8,3 L8,4 L9,4 L9,6 L8,6 L8,8 L7,8 L7,10 L6,10 L6,11 L5,11 L5,13 L4,13 L4,15 L3,15 L3,16 L2,16 L2,18 L1,18 L1,19 L0,19 L0,21 L-1,21 L-1,22 L-2,22 L-2,23 L-4,23 L-4,21 L-6,21 L-6,20 L-7,20 L-7,19 L-9,19 L-9,18 L-10,18 L-10,16 L-9,16 L-9,15 L-8,15 L-8,13 L-7,13 L-7,12 L-6,12 L-6,10 L-5,10 L-5,9 L-4,9 L-4,7 L-3,7 L-3,6 L-2,6 L-2,4 L-1,4 L-1,2 L0,2 Z " fill="#36B3F9" transform="translate(174,133)"/>
<path d="M0,0 L2,0 L2,2 L1,2 L1,3 L0,3 L0,4 L-1,4 L-1,6 L-2,6 L-2,8 L-5,8 L-5,19 L-6,19 L-6,22 L-7,22 L-7,23 L-9,23 L-9,24 L-13,24 L-13,22 L-12,22 L-12,19 L-13,19 L-13,3 L-12,3 L-12,1 L-6,1 L-6,3 L-5,3 L-5,2 L-4,2 L-4,1 L0,1 Z " fill="#FFFFFF" transform="translate(148,83)"/>
<path d="M0,0 L2,0 L2,1 L3,1 L3,2 L4,2 L4,3 L6,3 L6,4 L7,4 L7,5 L8,5 L8,6 L10,6 L10,7 L9,7 L9,8 L8,8 L8,9 L7,9 L7,10 L6,10 L6,11 L5,11 L5,12 L4,12 L4,13 L3,13 L3,14 L2,14 L2,16 L1,16 L1,17 L0,17 L0,18 L-1,18 L-1,20 L-2,20 L-2,22 L-3,22 L-3,21 L-4,21 L-4,20 L-5,20 L-5,19 L-6,19 L-6,18 L-8,18 L-8,17 L-9,17 L-9,16 L-10,16 L-10,14 L-9,14 L-9,13 L-8,13 L-8,12 L-7,12 L-7,11 L-5,11 L-5,9 L-4,9 L-4,6 L-3,6 L-3,4 L-2,4 L-2,2 L-1,2 L-1,1 L0,1 Z " fill="#D7058A" transform="translate(149,16)"/>
<path d="M0,0 L2,0 L2,2 L3,2 L3,3 L4,3 L4,5 L5,5 L5,7 L6,7 L6,9 L7,9 L7,10 L8,10 L8,11 L7,11 L7,12 L5,12 L5,13 L1,13 L1,14 L-3,14 L-3,15 L-5,15 L-5,16 L-6,16 L-6,15 L-7,15 L-7,13 L-8,13 L-8,11 L-9,11 L-9,9 L-10,9 L-10,8 L-11,8 L-11,6 L-12,6 L-12,5 L-11,5 L-11,4 L-10,4 L-10,3 L-6,3 L-6,2 L-4,2 L-4,1 L0,1 Z " fill="#BFE415" transform="translate(21,133)"/>
<path d="M0,0 L2,0 L2,1 L4,1 L4,2 L6,2 L6,3 L8,3 L8,4 L11,4 L11,5 L13,5 L13,6 L14,6 L14,7 L13,7 L13,8 L12,8 L12,9 L11,9 L11,11 L10,11 L10,12 L9,12 L9,13 L8,13 L8,14 L7,14 L7,15 L6,15 L6,16 L3,16 L3,15 L0,15 L0,14 L-2,14 L-2,13 L-4,13 L-4,12 L-6,12 L-6,11 L-7,11 L-7,10 L-6,10 L-6,9 L-5,9 L-5,8 L-4,8 L-4,7 L-3,7 L-3,6 L-2,6 L-2,5 L-1,5 L-1,1 L0,1 Z " fill="#00BA7D" transform="translate(57,170)"/>
<path d="M0,0 L2,0 L2,2 L3,2 L3,9 L4,9 L4,17 L2,17 L2,18 L-1,18 L-1,19 L-3,19 L-3,20 L-5,20 L-5,17 L-6,17 L-6,16 L-7,16 L-7,10 L-8,10 L-8,4 L-7,4 L-7,3 L-5,3 L-5,2 L-3,2 L-3,1 L0,1 Z " fill="#FE5D4E" transform="translate(63,5)"/>
<path d="M0,0 L1,0 L1,2 L2,2 L2,3 L3,3 L3,5 L4,5 L4,7 L5,7 L5,9 L4,9 L4,10 L2,10 L2,11 L1,11 L1,12 L-3,12 L-3,13 L-4,13 L-4,14 L-5,14 L-5,15 L-6,15 L-6,16 L-7,16 L-7,17 L-9,17 L-9,18 L-13,18 L-13,16 L-14,16 L-14,14 L-15,14 L-15,11 L-13,11 L-13,10 L-12,10 L-12,9 L-10,9 L-10,8 L-9,8 L-9,7 L-8,7 L-8,6 L-6,6 L-6,5 L-5,5 L-5,4 L-4,4 L-4,3 L-3,3 L-3,2 L-2,2 L-2,1 L0,1 Z " fill="#A030B0" transform="translate(178,46)"/>
<path d="M0,0 L1,0 L1,10 L2,10 L2,12 L3,12 L3,14 L4,14 L4,18 L3,18 L3,19 L2,19 L2,20 L1,20 L1,21 L0,21 L0,23 L-1,23 L-1,24 L-2,24 L-2,25 L-3,25 L-3,24 L-4,24 L-4,22 L-5,22 L-5,17 L-6,17 L-6,8 L-7,8 L-7,10 L-8,10 L-8,9 L-9,9 L-9,8 L-8,8 L-8,7 L-7,7 L-7,6 L-6,6 L-6,5 L-5,5 L-5,3 L-4,3 L-4,2 L-3,2 L-3,1 L-2,1 L-2,2 L0,2 Z " fill="#FF9D2F" transform="translate(29,28)"/>
<path d="M0,0 L2,0 L2,1 L3,1 L3,3 L4,3 L4,4 L5,4 L5,7 L3,7 L3,8 L2,8 L2,9 L1,9 L1,10 L0,10 L0,11 L-1,11 L-1,12 L-3,12 L-3,13 L-4,13 L-4,14 L-5,14 L-5,15 L-7,15 L-7,16 L-8,16 L-8,17 L-10,17 L-10,18 L-11,18 L-11,16 L-12,16 L-12,14 L-13,14 L-13,13 L-14,13 L-14,12 L-13,12 L-13,11 L-12,11 L-12,10 L-11,10 L-11,9 L-10,9 L-10,8 L-9,8 L-9,7 L-8,7 L-8,6 L-7,6 L-7,5 L-6,5 L-6,4 L-5,4 L-5,3 L-3,3 L-3,2 L-2,2 L-2,1 L0,1 Z " fill="#AD25A9" transform="translate(173,40)"/>
<path d="M0,0 L4,0 L4,7 L6,7 L6,9 L7,9 L7,13 L8,13 L8,14 L10,14 L10,16 L9,16 L9,19 L8,19 L8,22 L7,22 L7,26 L6,26 L6,24 L5,24 L5,23 L4,23 L4,21 L3,21 L3,19 L2,19 L2,15 L0,15 L0,14 L-1,14 L-1,6 L-2,6 L-2,4 L-1,4 L-1,2 L0,2 Z " fill="#FFC418" transform="translate(10,52)"/>
<path d="M0,0 L1,0 L1,1 L2,1 L2,2 L3,2 L3,3 L4,3 L4,4 L5,4 L5,5 L6,5 L6,6 L7,6 L7,8 L6,8 L6,10 L5,10 L5,11 L4,11 L4,12 L1,12 L1,13 L-1,13 L-1,16 L-2,16 L-2,17 L-3,17 L-3,16 L-4,16 L-4,15 L-5,15 L-5,14 L-6,14 L-6,13 L-7,13 L-7,12 L-8,12 L-8,11 L-9,11 L-9,10 L-10,10 L-10,7 L-8,7 L-8,6 L-6,6 L-6,5 L-4,5 L-4,4 L-3,4 L-3,3 L-1,3 L-1,2 L0,2 Z " fill="#64D539" transform="translate(36,153)"/>
<path d="M0,0 L10,0 L10,3 L9,3 L9,9 L8,9 L8,12 L2,12 L2,11 L-2,11 L-2,8 L-1,8 L-1,3 L0,3 Z " fill="#D3EDFF" transform="translate(182,108)"/>
<path d="M0,0 L2,0 L2,2 L3,2 L3,4 L4,4 L4,6 L2,6 L2,7 L0,7 L0,8 L-1,8 L-1,9 L-3,9 L-3,10 L-4,10 L-4,9 L-5,9 L-5,10 L-6,10 L-6,11 L-7,11 L-7,12 L-11,12 L-11,13 L-14,13 L-14,14 L-15,14 L-15,11 L-16,11 L-16,9 L-13,9 L-13,8 L-11,8 L-11,7 L-10,7 L-10,6 L-9,6 L-9,5 L-8,5 L-8,4 L-7,4 L-7,3 L-3,3 L-3,2 L-2,2 L-2,1 L0,1 Z " fill="#973AB7" transform="translate(182,55)"/>
<path d="M0,0 L1,0 L1,1 L0,1 Z M-2,1 L0,1 L0,7 L1,7 L1,13 L2,13 L2,14 L3,14 L3,18 L1,18 L1,19 L-1,19 L-1,20 L-3,20 L-3,21 L-4,21 L-4,22 L-6,22 L-6,23 L-7,23 L-7,20 L-5,20 L-5,17 L-4,17 L-4,15 L-3,15 L-3,10 L-4,10 L-4,7 L-5,7 L-5,6 L-7,6 L-7,9 L-9,9 L-9,5 L-7,5 L-7,4 L-5,4 L-5,3 L-4,3 L-4,2 L-2,2 Z " fill="#FF6C48" transform="translate(55,8)"/>
<path d="M0,0 L2,0 L2,1 L6,1 L6,2 L8,2 L8,3 L7,3 L7,5 L6,5 L6,7 L5,7 L5,8 L4,8 L4,9 L3,9 L3,10 L2,10 L2,12 L1,12 L1,13 L-3,13 L-3,12 L-6,12 L-6,11 L-9,11 L-9,10 L-8,10 L-8,9 L-7,9 L-7,8 L-6,8 L-6,7 L-5,7 L-5,6 L-4,6 L-4,5 L-3,5 L-3,3 L-2,3 L-2,2 L-1,2 L-1,1 L0,1 Z " fill="#00B58A" transform="translate(71,176)"/>
<path d="M0,0 L2,0 L2,3 L4,3 L4,4 L5,4 L5,7 L6,7 L6,13 L7,13 L7,14 L8,14 L8,15 L9,15 L9,16 L8,16 L8,18 L7,18 L7,20 L6,20 L6,21 L4,21 L4,20 L3,20 L3,16 L2,16 L2,14 L0,14 L0,7 L-3,7 L-3,5 L-2,5 L-2,3 L-1,3 L-1,1 L0,1 Z " fill="#FFB720" transform="translate(14,45)"/>
<path d="M0,0 L1,0 L1,4 L2,4 L2,2 L3,2 L3,4 L4,4 L4,17 L1,17 L1,18 L-2,18 L-2,11 L-3,11 L-3,4 L-4,4 L-4,2 L-3,2 L-3,1 L0,1 Z " fill="#FD4E52" transform="translate(69,3)"/>
<path d="M0,0 L1,0 L1,1 L2,1 L2,2 L4,2 L4,3 L5,3 L5,4 L7,4 L7,6 L8,6 L8,7 L7,7 L7,9 L6,9 L6,10 L5,10 L5,11 L4,11 L4,12 L3,12 L3,13 L2,13 L2,14 L1,14 L1,15 L0,15 L0,11 L-2,11 L-2,10 L-4,10 L-4,9 L-5,9 L-5,5 L-3,5 L-3,3 L-2,3 L-2,2 L-1,2 L-1,1 L0,1 Z " fill="#14A6F3" transform="translate(163,150)"/>
<path d="M0,0 L1,0 L1,1 L2,1 L2,2 L3,2 L3,3 L4,3 L4,5 L3,5 L3,6 L1,6 L1,7 L0,7 L0,8 L-1,8 L-1,9 L-2,9 L-2,10 L-3,10 L-3,12 L-4,12 L-4,14 L-6,14 L-6,15 L-7,15 L-7,16 L-10,16 L-10,17 L-11,17 L-11,16 L-12,16 L-12,14 L-11,14 L-11,13 L-10,13 L-10,12 L-9,12 L-9,10 L-8,10 L-8,8 L-7,8 L-7,7 L-6,7 L-6,6 L-5,6 L-5,4 L-4,4 L-4,3 L-3,3 L-3,2 L-1,2 L-1,1 L0,1 Z " fill="#C3129A" transform="translate(164,28)"/>
<path d="M0,0 L6,0 L6,1 L5,1 L5,2 L4,2 L4,4 L3,4 L3,6 L4,6 L4,7 L3,7 L3,13 L2,13 L2,14 L4,14 L4,11 L5,11 L5,14 L7,14 L7,13 L8,13 L8,12 L9,12 L9,11 L11,11 L11,12 L10,12 L10,15 L9,15 L9,16 L10,16 L10,17 L-1,17 L-1,16 L-2,16 L-2,15 L-1,15 L-1,12 L0,12 L0,4 L-1,4 L-1,1 L0,1 Z M1,14 L1,15 L2,15 L2,14 Z M10,15 L11,15 L11,16 L10,16 Z " fill="#F9255F" transform="translate(91,0)"/>
<path d="M0,0 L2,0 L2,2 L3,2 L3,3 L4,3 L4,5 L2,5 L2,6 L1,6 L1,7 L0,7 L0,8 L-4,8 L-4,9 L-6,9 L-6,10 L-7,10 L-7,11 L-9,11 L-9,9 L-10,9 L-10,8 L-11,8 L-11,7 L-12,7 L-12,4 L-10,4 L-10,3 L-6,3 L-6,2 L-2,2 L-2,1 L0,1 Z " fill="#A0DF20" transform="translate(28,144)"/>
<path d="M0,0 L2,0 L2,1 L5,1 L5,2 L7,2 L7,3 L8,3 L8,4 L9,4 L9,6 L8,6 L8,8 L7,8 L7,10 L6,10 L6,11 L5,11 L5,13 L4,13 L4,12 L3,12 L3,11 L1,11 L1,10 L-1,10 L-1,9 L-2,9 L-2,8 L-4,8 L-4,7 L-3,7 L-3,6 L-2,6 L-2,4 L-1,4 L-1,2 L0,2 Z " fill="#59C0FB" transform="translate(174,133)"/>
<path d="M0,0 L1,0 L1,1 L2,1 L2,2 L4,2 L4,3 L5,3 L5,5 L3,5 L3,7 L2,7 L2,8 L1,8 L1,10 L0,10 L0,11 L-2,11 L-2,13 L-3,13 L-3,14 L-4,14 L-4,13 L-6,13 L-6,12 L-7,12 L-7,11 L-8,11 L-8,10 L-9,10 L-9,9 L-8,9 L-8,6 L-6,6 L-6,5 L-3,5 L-3,4 L-2,4 L-2,3 L-1,3 L-1,1 L0,1 Z " fill="#2ECA53" transform="translate(43,160)"/>
<path d="M0,0 L2,0 L2,2 L3,2 L3,3 L4,3 L4,5 L2,5 L2,6 L1,6 L1,7 L-7,7 L-7,8 L-9,8 L-9,9 L-10,9 L-10,8 L-11,8 L-11,6 L-12,6 L-12,5 L-11,5 L-11,4 L-10,4 L-10,3 L-6,3 L-6,2 L-4,2 L-4,1 L0,1 Z " fill="#D0E60F" transform="translate(21,133)"/>
<path d="M0,0 L2,0 L2,1 L4,1 L4,2 L5,2 L5,5 L4,5 L4,6 L3,6 L3,8 L2,8 L2,9 L1,9 L1,10 L0,10 L0,12 L-1,12 L-1,14 L-2,14 L-2,13 L-4,13 L-4,12 L-6,12 L-6,11 L-7,11 L-7,10 L-6,10 L-6,9 L-5,9 L-5,8 L-4,8 L-4,7 L-3,7 L-3,6 L-2,6 L-2,5 L-1,5 L-1,1 L0,1 Z " fill="#04BE72" transform="translate(57,170)"/>
<path d="M0,0 L1,0 L1,1 L3,1 L3,2 L4,2 L4,4 L3,4 L3,5 L2,5 L2,7 L1,7 L1,8 L0,8 L0,9 L-1,9 L-1,10 L-3,10 L-3,11 L-4,11 L-4,12 L-7,12 L-7,11 L-8,11 L-8,9 L-7,9 L-7,7 L-5,7 L-5,6 L-4,6 L-4,4 L-3,4 L-3,3 L-2,3 L-2,1 L0,1 Z " fill="#20C75B" transform="translate(48,164)"/>
<path d="M0,0 L4,0 L4,1 L10,1 L10,2 L9,2 L9,5 L8,5 L8,8 L5,8 L5,7 L2,7 L2,6 L-2,6 L-2,4 L-1,4 L-1,1 L0,1 Z " fill="#99D8FD" transform="translate(180,119)"/>
<path d="M0,0 L6,0 L6,2 L7,2 L7,3 L5,3 L5,4 L1,4 L1,5 L-1,5 L-1,6 L-5,6 L-5,7 L-6,7 L-6,8 L-7,8 L-7,6 L-8,6 L-8,3 L-6,3 L-6,2 L-5,2 L-5,1 L0,1 Z " fill="#E0E90A" transform="translate(16,130)"/>
<path d="M0,0 L1,0 L1,1 L2,1 L2,2 L3,2 L3,4 L2,4 L2,6 L1,6 L1,7 L0,7 L0,8 L-3,8 L-3,9 L-5,9 L-5,12 L-6,12 L-6,13 L-7,13 L-7,12 L-8,12 L-8,11 L-9,11 L-9,10 L-10,10 L-10,8 L-8,8 L-8,7 L-7,7 L-7,6 L-5,6 L-5,5 L-3,5 L-3,4 L-2,4 L-2,3 L-1,3 L-1,1 L0,1 Z " fill="#48CF45" transform="translate(40,157)"/>
<path d="M0,0 L2,0 L2,1 L3,1 L3,2 L4,2 L4,3 L5,3 L5,4 L7,4 L7,5 L9,5 L9,6 L8,6 L8,8 L7,8 L7,9 L6,9 L6,10 L4,10 L4,8 L2,8 L2,7 L1,7 L1,6 L-1,6 L-1,5 L-2,5 L-2,3 L-1,3 L-1,2 L0,2 Z " fill="#25ADF7" transform="translate(166,146)"/>
<path d="M0,0 L1,0 L1,1 L2,1 L2,4 L1,4 L1,5 L-1,5 L-1,6 L-2,6 L-2,7 L-4,7 L-4,8 L-6,8 L-6,9 L-8,9 L-8,11 L-9,11 L-9,10 L-10,10 L-10,9 L-11,9 L-11,8 L-10,8 L-10,7 L-8,7 L-8,6 L-7,6 L-7,5 L-5,5 L-5,4 L-3,4 L-3,3 L-2,3 L-2,2 L-1,2 L-1,1 L0,1 Z " fill="#72D733" transform="translate(34,151)"/>
<path d="M0,0 L2,0 L2,1 L3,1 L3,2 L2,2 L2,3 L0,3 L0,4 L-4,4 L-4,5 L-8,5 L-8,6 L-10,6 L-10,7 L-11,7 L-11,6 L-12,6 L-12,4 L-10,4 L-10,3 L-7,3 L-7,1 L0,1 Z " fill="#AFE21B" transform="translate(26,142)"/>
<path d="M0,0 L1,0 L1,1 L2,1 L2,3 L1,3 L1,5 L0,5 L0,6 L-1,6 L-1,7 L-3,7 L-3,8 L-4,8 L-4,9 L-5,9 L-5,10 L-6,10 L-6,12 L-7,12 L-7,11 L-8,11 L-8,10 L-9,10 L-9,9 L-8,9 L-8,6 L-6,6 L-6,5 L-3,5 L-3,4 L-2,4 L-2,3 L-1,3 L-1,1 L0,1 Z " fill="#3ACC4D" transform="translate(43,160)"/>
<path d="M0,0 L1,0 L1,1 L2,1 L2,3 L1,3 L1,5 L0,5 L0,6 L-1,6 L-1,7 L-3,7 L-3,8 L-5,8 L-5,9 L-6,9 L-6,10 L-8,10 L-8,11 L-9,11 L-9,10 L-10,10 L-10,8 L-8,8 L-8,7 L-7,7 L-7,5 L-3,5 L-3,4 L-2,4 L-2,3 L-1,3 L-1,2 L0,2 Z " fill="#57D23E" transform="translate(38,155)"/>
<path d="M0,0 L2,0 L2,1 L4,1 L4,2 L7,2 L7,3 L8,3 L8,4 L9,4 L9,5 L8,5 L8,6 L7,6 L7,8 L6,8 L6,7 L5,7 L5,6 L3,6 L3,5 L1,5 L1,4 L0,4 L0,3 L-2,3 L-2,2 L-1,2 L-1,1 L0,1 Z " fill="#48B9FA" transform="translate(172,138)"/>
<path d="M0,0 L10,0 L10,3 L9,3 L9,4 L-1,4 L-1,3 L0,3 Z " fill="#EDF8FF" transform="translate(182,108)"/>
<path d="M0,0 L1,0 L1,1 L2,1 L2,3 L0,3 L0,4 L-1,4 L-1,5 L-2,5 L-2,6 L-6,6 L-6,7 L-8,7 L-8,8 L-9,8 L-9,9 L-11,9 L-11,6 L-10,6 L-10,4 L-3,4 L-3,3 L-2,3 L-2,1 L0,1 Z " fill="#92DD25" transform="translate(30,146)"/>
<path d="M0,0 L2,0 L2,2 L1,2 L1,6 L0,6 L0,7 L-1,7 L-1,8 L-2,8 L-2,9 L-3,9 L-3,10 L-4,10 L-4,11 L-5,11 L-5,12 L-6,12 L-6,11 L-7,11 L-7,8 L-6,8 L-6,7 L-4,7 L-4,6 L-3,6 L-3,5 L-2,5 L-2,3 L-1,3 L-1,2 L0,2 Z " fill="#0BC16B" transform="translate(55,169)"/>
<path d="M0,0 L4,0 L4,1 L7,1 L7,2 L9,2 L9,5 L8,5 L8,6 L6,6 L6,5 L4,5 L4,4 L1,4 L1,3 L-1,3 L-1,1 L0,1 Z " fill="#87D1FD" transform="translate(178,125)"/>
<path d="M0,0 L11,0 L11,1 L10,1 L10,4 L4,4 L4,3 L0,3 Z " fill="#BCE5FF" transform="translate(180,116)"/>
<path d="M0,0 L4,0 L4,1 L10,1 L10,2 L9,2 L9,4 L3,4 L3,3 L-1,3 L-1,1 L0,1 Z " fill="#A9DEFE" transform="translate(180,119)"/>
<path d="M0,0 L4,0 L4,1 L5,1 L5,2 L8,2 L8,3 L10,3 L10,4 L9,4 L9,6 L7,6 L7,5 L6,5 L6,4 L4,4 L4,3 L1,3 L1,2 L0,2 Z " fill="#6AC6FC" transform="translate(175,131)"/>
</svg>
